<mxfile host="app.diagrams.net" modified="2021-01-05T01:36:35.176Z" agent="5.0 (Windows NT 10.0; Win64; x64) AppleWebKit/537.36 (KHTML, like Gecko) Chrome/87.0.4280.88 Safari/537.36" etag="TNW79iv-plyaq1oNzrds" version="14.1.8" type="github">
  <diagram id="R2lEEEUBdFMjLlhIrx00" name="Page-1">
    <mxGraphModel dx="1220" dy="662" grid="1" gridSize="10" guides="1" tooltips="1" connect="1" arrows="1" fold="1" page="1" pageScale="1" pageWidth="850" pageHeight="1100" math="0" shadow="0" extFonts="Permanent Marker^https://fonts.googleapis.com/css?family=Permanent+Marker">
      <root>
        <mxCell id="0" />
        <mxCell id="1" parent="0" />
        <mxCell id="C-vyLk0tnHw3VtMMgP7b-1" value="" style="edgeStyle=entityRelationEdgeStyle;endArrow=ERzeroToMany;startArrow=ERone;endFill=1;startFill=0;entryX=0;entryY=0.5;entryDx=0;entryDy=0;exitX=1;exitY=0.5;exitDx=0;exitDy=0;" parent="1" source="C-vyLk0tnHw3VtMMgP7b-24" target="IQexzXvic-DB4qzPmASj-71" edge="1">
          <mxGeometry width="100" height="100" relative="1" as="geometry">
            <mxPoint x="340" y="720" as="sourcePoint" />
            <mxPoint x="450" y="195" as="targetPoint" />
          </mxGeometry>
        </mxCell>
        <mxCell id="C-vyLk0tnHw3VtMMgP7b-12" value="" style="edgeStyle=entityRelationEdgeStyle;endArrow=ERzeroToMany;startArrow=ERone;endFill=1;startFill=0;" parent="1" target="C-vyLk0tnHw3VtMMgP7b-17" edge="1">
          <mxGeometry width="100" height="100" relative="1" as="geometry">
            <mxPoint x="700" y="165" as="sourcePoint" />
            <mxPoint x="460" y="205" as="targetPoint" />
          </mxGeometry>
        </mxCell>
        <mxCell id="C-vyLk0tnHw3VtMMgP7b-23" value="user" style="shape=table;startSize=30;container=1;collapsible=1;childLayout=tableLayout;fixedRows=1;rowLines=0;fontStyle=1;align=center;resizeLast=1;" parent="1" vertex="1">
          <mxGeometry x="120" y="120" width="250" height="100" as="geometry" />
        </mxCell>
        <mxCell id="C-vyLk0tnHw3VtMMgP7b-24" value="" style="shape=partialRectangle;collapsible=0;dropTarget=0;pointerEvents=0;fillColor=none;points=[[0,0.5],[1,0.5]];portConstraint=eastwest;top=0;left=0;right=0;bottom=1;" parent="C-vyLk0tnHw3VtMMgP7b-23" vertex="1">
          <mxGeometry y="30" width="250" height="30" as="geometry" />
        </mxCell>
        <mxCell id="C-vyLk0tnHw3VtMMgP7b-25" value="PK" style="shape=partialRectangle;overflow=hidden;connectable=0;fillColor=none;top=0;left=0;bottom=0;right=0;fontStyle=1;" parent="C-vyLk0tnHw3VtMMgP7b-24" vertex="1">
          <mxGeometry width="30" height="30" as="geometry" />
        </mxCell>
        <mxCell id="C-vyLk0tnHw3VtMMgP7b-26" value="id" style="shape=partialRectangle;overflow=hidden;connectable=0;fillColor=none;top=0;left=0;bottom=0;right=0;align=center;spacingLeft=6;fontStyle=5;" parent="C-vyLk0tnHw3VtMMgP7b-24" vertex="1">
          <mxGeometry x="30" width="220" height="30" as="geometry" />
        </mxCell>
        <mxCell id="C-vyLk0tnHw3VtMMgP7b-27" value="" style="shape=partialRectangle;collapsible=0;dropTarget=0;pointerEvents=0;fillColor=none;points=[[0,0.5],[1,0.5]];portConstraint=eastwest;top=0;left=0;right=0;bottom=0;" parent="C-vyLk0tnHw3VtMMgP7b-23" vertex="1">
          <mxGeometry y="60" width="250" height="30" as="geometry" />
        </mxCell>
        <mxCell id="C-vyLk0tnHw3VtMMgP7b-28" value="" style="shape=partialRectangle;overflow=hidden;connectable=0;fillColor=none;top=0;left=0;bottom=0;right=0;" parent="C-vyLk0tnHw3VtMMgP7b-27" vertex="1">
          <mxGeometry width="30" height="30" as="geometry" />
        </mxCell>
        <mxCell id="C-vyLk0tnHw3VtMMgP7b-29" value="nmr_induk" style="shape=partialRectangle;overflow=hidden;connectable=0;fillColor=none;top=0;left=0;bottom=0;right=0;align=center;spacingLeft=6;" parent="C-vyLk0tnHw3VtMMgP7b-27" vertex="1">
          <mxGeometry x="30" width="220" height="30" as="geometry" />
        </mxCell>
        <mxCell id="IQexzXvic-DB4qzPmASj-1" value="" style="rounded=0;whiteSpace=wrap;html=1;" vertex="1" parent="1">
          <mxGeometry x="120" y="220" width="30" height="40" as="geometry" />
        </mxCell>
        <mxCell id="IQexzXvic-DB4qzPmASj-2" value="nama" style="rounded=0;whiteSpace=wrap;html=1;" vertex="1" parent="1">
          <mxGeometry x="150" y="220" width="220" height="40" as="geometry" />
        </mxCell>
        <mxCell id="IQexzXvic-DB4qzPmASj-3" value="" style="rounded=0;whiteSpace=wrap;html=1;" vertex="1" parent="1">
          <mxGeometry x="120" y="260" width="30" height="40" as="geometry" />
        </mxCell>
        <mxCell id="IQexzXvic-DB4qzPmASj-4" value="kategori" style="rounded=0;whiteSpace=wrap;html=1;" vertex="1" parent="1">
          <mxGeometry x="150" y="260" width="220" height="40" as="geometry" />
        </mxCell>
        <mxCell id="IQexzXvic-DB4qzPmASj-7" value="" style="rounded=0;whiteSpace=wrap;html=1;" vertex="1" parent="1">
          <mxGeometry x="120" y="300" width="30" height="40" as="geometry" />
        </mxCell>
        <mxCell id="IQexzXvic-DB4qzPmASj-8" value="email" style="rounded=0;whiteSpace=wrap;html=1;" vertex="1" parent="1">
          <mxGeometry x="150" y="300" width="220" height="40" as="geometry" />
        </mxCell>
        <mxCell id="IQexzXvic-DB4qzPmASj-9" value="" style="rounded=0;whiteSpace=wrap;html=1;" vertex="1" parent="1">
          <mxGeometry x="120" y="340" width="30" height="40" as="geometry" />
        </mxCell>
        <mxCell id="IQexzXvic-DB4qzPmASj-10" value="password" style="rounded=0;whiteSpace=wrap;html=1;" vertex="1" parent="1">
          <mxGeometry x="150" y="340" width="220" height="40" as="geometry" />
        </mxCell>
        <mxCell id="IQexzXvic-DB4qzPmASj-11" value="" style="rounded=0;whiteSpace=wrap;html=1;" vertex="1" parent="1">
          <mxGeometry x="120" y="380" width="30" height="40" as="geometry" />
        </mxCell>
        <mxCell id="IQexzXvic-DB4qzPmASj-12" value="status" style="rounded=0;whiteSpace=wrap;html=1;" vertex="1" parent="1">
          <mxGeometry x="150" y="380" width="220" height="40" as="geometry" />
        </mxCell>
        <mxCell id="IQexzXvic-DB4qzPmASj-13" value="kandidat" style="shape=table;startSize=30;container=1;collapsible=1;childLayout=tableLayout;fixedRows=1;rowLines=0;fontStyle=1;align=center;resizeLast=1;" vertex="1" parent="1">
          <mxGeometry x="120" y="470" width="250" height="100" as="geometry" />
        </mxCell>
        <mxCell id="IQexzXvic-DB4qzPmASj-14" value="" style="shape=partialRectangle;collapsible=0;dropTarget=0;pointerEvents=0;fillColor=none;points=[[0,0.5],[1,0.5]];portConstraint=eastwest;top=0;left=0;right=0;bottom=1;" vertex="1" parent="IQexzXvic-DB4qzPmASj-13">
          <mxGeometry y="30" width="250" height="30" as="geometry" />
        </mxCell>
        <mxCell id="IQexzXvic-DB4qzPmASj-15" value="PK" style="shape=partialRectangle;overflow=hidden;connectable=0;fillColor=none;top=0;left=0;bottom=0;right=0;fontStyle=1;" vertex="1" parent="IQexzXvic-DB4qzPmASj-14">
          <mxGeometry width="30" height="30" as="geometry" />
        </mxCell>
        <mxCell id="IQexzXvic-DB4qzPmASj-16" value="id" style="shape=partialRectangle;overflow=hidden;connectable=0;fillColor=none;top=0;left=0;bottom=0;right=0;align=center;spacingLeft=6;fontStyle=5;" vertex="1" parent="IQexzXvic-DB4qzPmASj-14">
          <mxGeometry x="30" width="220" height="30" as="geometry" />
        </mxCell>
        <mxCell id="IQexzXvic-DB4qzPmASj-17" value="" style="shape=partialRectangle;collapsible=0;dropTarget=0;pointerEvents=0;fillColor=none;points=[[0,0.5],[1,0.5]];portConstraint=eastwest;top=0;left=0;right=0;bottom=0;" vertex="1" parent="IQexzXvic-DB4qzPmASj-13">
          <mxGeometry y="60" width="250" height="30" as="geometry" />
        </mxCell>
        <mxCell id="IQexzXvic-DB4qzPmASj-18" value="" style="shape=partialRectangle;overflow=hidden;connectable=0;fillColor=none;top=0;left=0;bottom=0;right=0;" vertex="1" parent="IQexzXvic-DB4qzPmASj-17">
          <mxGeometry width="30" height="30" as="geometry" />
        </mxCell>
        <mxCell id="IQexzXvic-DB4qzPmASj-19" value="nama" style="shape=partialRectangle;overflow=hidden;connectable=0;fillColor=none;top=0;left=0;bottom=0;right=0;align=center;spacingLeft=6;" vertex="1" parent="IQexzXvic-DB4qzPmASj-17">
          <mxGeometry x="30" width="220" height="30" as="geometry" />
        </mxCell>
        <mxCell id="IQexzXvic-DB4qzPmASj-20" value="&lt;b&gt;AK&lt;/b&gt;" style="rounded=0;whiteSpace=wrap;html=1;" vertex="1" parent="1">
          <mxGeometry x="120" y="570" width="30" height="40" as="geometry" />
        </mxCell>
        <mxCell id="IQexzXvic-DB4qzPmASj-21" value="nim" style="rounded=0;whiteSpace=wrap;html=1;" vertex="1" parent="1">
          <mxGeometry x="150" y="570" width="220" height="40" as="geometry" />
        </mxCell>
        <mxCell id="IQexzXvic-DB4qzPmASj-22" value="" style="rounded=0;whiteSpace=wrap;html=1;" vertex="1" parent="1">
          <mxGeometry x="120" y="610" width="30" height="40" as="geometry" />
        </mxCell>
        <mxCell id="IQexzXvic-DB4qzPmASj-23" value="jurusan" style="rounded=0;whiteSpace=wrap;html=1;" vertex="1" parent="1">
          <mxGeometry x="150" y="610" width="220" height="40" as="geometry" />
        </mxCell>
        <mxCell id="IQexzXvic-DB4qzPmASj-24" value="" style="rounded=0;whiteSpace=wrap;html=1;" vertex="1" parent="1">
          <mxGeometry x="120" y="650" width="30" height="40" as="geometry" />
        </mxCell>
        <mxCell id="IQexzXvic-DB4qzPmASj-25" value="status" style="rounded=0;whiteSpace=wrap;html=1;" vertex="1" parent="1">
          <mxGeometry x="150" y="650" width="220" height="40" as="geometry" />
        </mxCell>
        <mxCell id="IQexzXvic-DB4qzPmASj-26" value="" style="rounded=0;whiteSpace=wrap;html=1;" vertex="1" parent="1">
          <mxGeometry x="120" y="690" width="30" height="40" as="geometry" />
        </mxCell>
        <mxCell id="IQexzXvic-DB4qzPmASj-27" value="nim2" style="rounded=0;whiteSpace=wrap;html=1;" vertex="1" parent="1">
          <mxGeometry x="150" y="690" width="220" height="40" as="geometry" />
        </mxCell>
        <mxCell id="IQexzXvic-DB4qzPmASj-28" value="" style="rounded=0;whiteSpace=wrap;html=1;" vertex="1" parent="1">
          <mxGeometry x="120" y="730" width="30" height="40" as="geometry" />
        </mxCell>
        <mxCell id="IQexzXvic-DB4qzPmASj-29" value="visi" style="rounded=0;whiteSpace=wrap;html=1;" vertex="1" parent="1">
          <mxGeometry x="150" y="730" width="220" height="40" as="geometry" />
        </mxCell>
        <mxCell id="IQexzXvic-DB4qzPmASj-30" value="" style="rounded=0;whiteSpace=wrap;html=1;" vertex="1" parent="1">
          <mxGeometry x="120" y="770" width="30" height="40" as="geometry" />
        </mxCell>
        <mxCell id="IQexzXvic-DB4qzPmASj-31" value="misi" style="rounded=0;whiteSpace=wrap;html=1;" vertex="1" parent="1">
          <mxGeometry x="150" y="770" width="220" height="40" as="geometry" />
        </mxCell>
        <mxCell id="IQexzXvic-DB4qzPmASj-32" value="" style="rounded=0;whiteSpace=wrap;html=1;" vertex="1" parent="1">
          <mxGeometry x="120" y="810" width="30" height="40" as="geometry" />
        </mxCell>
        <mxCell id="IQexzXvic-DB4qzPmASj-33" value="anggota1" style="rounded=0;whiteSpace=wrap;html=1;" vertex="1" parent="1">
          <mxGeometry x="150" y="810" width="220" height="40" as="geometry" />
        </mxCell>
        <mxCell id="IQexzXvic-DB4qzPmASj-34" value="" style="rounded=0;whiteSpace=wrap;html=1;" vertex="1" parent="1">
          <mxGeometry x="120" y="850" width="30" height="40" as="geometry" />
        </mxCell>
        <mxCell id="IQexzXvic-DB4qzPmASj-35" value="anggota2" style="rounded=0;whiteSpace=wrap;html=1;" vertex="1" parent="1">
          <mxGeometry x="150" y="850" width="220" height="40" as="geometry" />
        </mxCell>
        <mxCell id="IQexzXvic-DB4qzPmASj-38" value="" style="rounded=0;whiteSpace=wrap;html=1;align=center;" vertex="1" parent="1">
          <mxGeometry x="120" y="890" width="30" height="40" as="geometry" />
        </mxCell>
        <mxCell id="IQexzXvic-DB4qzPmASj-39" value="photo" style="rounded=0;whiteSpace=wrap;html=1;align=center;" vertex="1" parent="1">
          <mxGeometry x="150" y="890" width="220" height="40" as="geometry" />
        </mxCell>
        <mxCell id="IQexzXvic-DB4qzPmASj-40" value="kandidat2" style="shape=table;startSize=30;container=1;collapsible=1;childLayout=tableLayout;fixedRows=1;rowLines=0;fontStyle=1;align=center;resizeLast=1;" vertex="1" parent="1">
          <mxGeometry x="201" y="1480" width="250" height="100" as="geometry" />
        </mxCell>
        <mxCell id="IQexzXvic-DB4qzPmASj-41" value="" style="shape=partialRectangle;collapsible=0;dropTarget=0;pointerEvents=0;fillColor=none;points=[[0,0.5],[1,0.5]];portConstraint=eastwest;top=0;left=0;right=0;bottom=1;" vertex="1" parent="IQexzXvic-DB4qzPmASj-40">
          <mxGeometry y="30" width="250" height="30" as="geometry" />
        </mxCell>
        <mxCell id="IQexzXvic-DB4qzPmASj-42" value="PK" style="shape=partialRectangle;overflow=hidden;connectable=0;fillColor=none;top=0;left=0;bottom=0;right=0;fontStyle=1;" vertex="1" parent="IQexzXvic-DB4qzPmASj-41">
          <mxGeometry width="30" height="30" as="geometry" />
        </mxCell>
        <mxCell id="IQexzXvic-DB4qzPmASj-43" value="id" style="shape=partialRectangle;overflow=hidden;connectable=0;fillColor=none;top=0;left=0;bottom=0;right=0;align=center;spacingLeft=6;fontStyle=5;" vertex="1" parent="IQexzXvic-DB4qzPmASj-41">
          <mxGeometry x="30" width="220" height="30" as="geometry" />
        </mxCell>
        <mxCell id="IQexzXvic-DB4qzPmASj-44" value="" style="shape=partialRectangle;collapsible=0;dropTarget=0;pointerEvents=0;fillColor=none;points=[[0,0.5],[1,0.5]];portConstraint=eastwest;top=0;left=0;right=0;bottom=0;" vertex="1" parent="IQexzXvic-DB4qzPmASj-40">
          <mxGeometry y="60" width="250" height="30" as="geometry" />
        </mxCell>
        <mxCell id="IQexzXvic-DB4qzPmASj-45" value="" style="shape=partialRectangle;overflow=hidden;connectable=0;fillColor=none;top=0;left=0;bottom=0;right=0;" vertex="1" parent="IQexzXvic-DB4qzPmASj-44">
          <mxGeometry width="30" height="30" as="geometry" />
        </mxCell>
        <mxCell id="IQexzXvic-DB4qzPmASj-46" value="nama" style="shape=partialRectangle;overflow=hidden;connectable=0;fillColor=none;top=0;left=0;bottom=0;right=0;align=center;spacingLeft=6;" vertex="1" parent="IQexzXvic-DB4qzPmASj-44">
          <mxGeometry x="30" width="220" height="30" as="geometry" />
        </mxCell>
        <mxCell id="IQexzXvic-DB4qzPmASj-47" value="&lt;b&gt;AK&lt;/b&gt;" style="rounded=0;whiteSpace=wrap;html=1;" vertex="1" parent="1">
          <mxGeometry x="200" y="1580" width="30" height="40" as="geometry" />
        </mxCell>
        <mxCell id="IQexzXvic-DB4qzPmASj-48" value="nim" style="rounded=0;whiteSpace=wrap;html=1;" vertex="1" parent="1">
          <mxGeometry x="230" y="1580" width="220" height="40" as="geometry" />
        </mxCell>
        <mxCell id="IQexzXvic-DB4qzPmASj-49" value="" style="rounded=0;whiteSpace=wrap;html=1;" vertex="1" parent="1">
          <mxGeometry x="200" y="1620" width="30" height="40" as="geometry" />
        </mxCell>
        <mxCell id="IQexzXvic-DB4qzPmASj-50" value="jurusan" style="rounded=0;whiteSpace=wrap;html=1;" vertex="1" parent="1">
          <mxGeometry x="230" y="1620" width="220" height="40" as="geometry" />
        </mxCell>
        <mxCell id="IQexzXvic-DB4qzPmASj-51" value="" style="rounded=0;whiteSpace=wrap;html=1;" vertex="1" parent="1">
          <mxGeometry x="200" y="1660" width="30" height="40" as="geometry" />
        </mxCell>
        <mxCell id="IQexzXvic-DB4qzPmASj-52" value="status" style="rounded=0;whiteSpace=wrap;html=1;" vertex="1" parent="1">
          <mxGeometry x="230" y="1660" width="220" height="40" as="geometry" />
        </mxCell>
        <mxCell id="IQexzXvic-DB4qzPmASj-53" value="" style="rounded=0;whiteSpace=wrap;html=1;" vertex="1" parent="1">
          <mxGeometry x="200" y="1700" width="30" height="40" as="geometry" />
        </mxCell>
        <mxCell id="IQexzXvic-DB4qzPmASj-54" value="nim2" style="rounded=0;whiteSpace=wrap;html=1;" vertex="1" parent="1">
          <mxGeometry x="230" y="1700" width="220" height="40" as="geometry" />
        </mxCell>
        <mxCell id="IQexzXvic-DB4qzPmASj-55" value="" style="rounded=0;whiteSpace=wrap;html=1;" vertex="1" parent="1">
          <mxGeometry x="200" y="1740" width="30" height="40" as="geometry" />
        </mxCell>
        <mxCell id="IQexzXvic-DB4qzPmASj-56" value="visi" style="rounded=0;whiteSpace=wrap;html=1;" vertex="1" parent="1">
          <mxGeometry x="230" y="1740" width="220" height="40" as="geometry" />
        </mxCell>
        <mxCell id="IQexzXvic-DB4qzPmASj-57" value="" style="rounded=0;whiteSpace=wrap;html=1;" vertex="1" parent="1">
          <mxGeometry x="200" y="1780" width="30" height="40" as="geometry" />
        </mxCell>
        <mxCell id="IQexzXvic-DB4qzPmASj-58" value="misi" style="rounded=0;whiteSpace=wrap;html=1;" vertex="1" parent="1">
          <mxGeometry x="230" y="1780" width="220" height="40" as="geometry" />
        </mxCell>
        <mxCell id="IQexzXvic-DB4qzPmASj-59" value="" style="rounded=0;whiteSpace=wrap;html=1;" vertex="1" parent="1">
          <mxGeometry x="200" y="1820" width="30" height="40" as="geometry" />
        </mxCell>
        <mxCell id="IQexzXvic-DB4qzPmASj-60" value="anggota1" style="rounded=0;whiteSpace=wrap;html=1;" vertex="1" parent="1">
          <mxGeometry x="230" y="1820" width="220" height="40" as="geometry" />
        </mxCell>
        <mxCell id="IQexzXvic-DB4qzPmASj-61" value="" style="rounded=0;whiteSpace=wrap;html=1;" vertex="1" parent="1">
          <mxGeometry x="200" y="1860" width="30" height="40" as="geometry" />
        </mxCell>
        <mxCell id="IQexzXvic-DB4qzPmASj-62" value="anggota2" style="rounded=0;whiteSpace=wrap;html=1;" vertex="1" parent="1">
          <mxGeometry x="230" y="1860" width="220" height="40" as="geometry" />
        </mxCell>
        <mxCell id="IQexzXvic-DB4qzPmASj-65" value="" style="rounded=0;whiteSpace=wrap;html=1;align=center;" vertex="1" parent="1">
          <mxGeometry x="200" y="1900" width="30" height="40" as="geometry" />
        </mxCell>
        <mxCell id="IQexzXvic-DB4qzPmASj-66" value="photo" style="rounded=0;whiteSpace=wrap;html=1;align=center;" vertex="1" parent="1">
          <mxGeometry x="230" y="1900" width="220" height="40" as="geometry" />
        </mxCell>
        <mxCell id="IQexzXvic-DB4qzPmASj-67" value="voting" style="shape=table;startSize=30;container=1;collapsible=1;childLayout=tableLayout;fixedRows=1;rowLines=0;fontStyle=1;align=center;resizeLast=1;" vertex="1" parent="1">
          <mxGeometry x="570" y="380" width="250" height="100" as="geometry" />
        </mxCell>
        <mxCell id="IQexzXvic-DB4qzPmASj-68" value="" style="shape=partialRectangle;collapsible=0;dropTarget=0;pointerEvents=0;fillColor=none;points=[[0,0.5],[1,0.5]];portConstraint=eastwest;top=0;left=0;right=0;bottom=1;" vertex="1" parent="IQexzXvic-DB4qzPmASj-67">
          <mxGeometry y="30" width="250" height="30" as="geometry" />
        </mxCell>
        <mxCell id="IQexzXvic-DB4qzPmASj-69" value="PK" style="shape=partialRectangle;overflow=hidden;connectable=0;fillColor=none;top=0;left=0;bottom=0;right=0;fontStyle=1;" vertex="1" parent="IQexzXvic-DB4qzPmASj-68">
          <mxGeometry width="30" height="30" as="geometry" />
        </mxCell>
        <mxCell id="IQexzXvic-DB4qzPmASj-70" value="id" style="shape=partialRectangle;overflow=hidden;connectable=0;fillColor=none;top=0;left=0;bottom=0;right=0;align=center;spacingLeft=6;fontStyle=5;" vertex="1" parent="IQexzXvic-DB4qzPmASj-68">
          <mxGeometry x="30" width="220" height="30" as="geometry" />
        </mxCell>
        <mxCell id="IQexzXvic-DB4qzPmASj-71" value="" style="shape=partialRectangle;collapsible=0;dropTarget=0;pointerEvents=0;fillColor=none;points=[[0,0.5],[1,0.5]];portConstraint=eastwest;top=0;left=0;right=0;bottom=0;" vertex="1" parent="IQexzXvic-DB4qzPmASj-67">
          <mxGeometry y="60" width="250" height="30" as="geometry" />
        </mxCell>
        <mxCell id="IQexzXvic-DB4qzPmASj-72" value="FK" style="shape=partialRectangle;overflow=hidden;connectable=0;fillColor=none;top=0;left=0;bottom=0;right=0;fontStyle=1" vertex="1" parent="IQexzXvic-DB4qzPmASj-71">
          <mxGeometry width="30" height="30" as="geometry" />
        </mxCell>
        <mxCell id="IQexzXvic-DB4qzPmASj-73" value="id_opsi" style="shape=partialRectangle;overflow=hidden;connectable=0;fillColor=none;top=0;left=0;bottom=0;right=0;align=center;spacingLeft=6;" vertex="1" parent="IQexzXvic-DB4qzPmASj-71">
          <mxGeometry x="30" width="220" height="30" as="geometry" />
        </mxCell>
        <mxCell id="IQexzXvic-DB4qzPmASj-74" value="" style="rounded=0;whiteSpace=wrap;html=1;" vertex="1" parent="1">
          <mxGeometry x="570" y="480" width="30" height="40" as="geometry" />
        </mxCell>
        <mxCell id="IQexzXvic-DB4qzPmASj-75" value="email" style="rounded=0;whiteSpace=wrap;html=1;" vertex="1" parent="1">
          <mxGeometry x="600" y="480" width="220" height="40" as="geometry" />
        </mxCell>
        <mxCell id="IQexzXvic-DB4qzPmASj-76" value="" style="rounded=0;whiteSpace=wrap;html=1;" vertex="1" parent="1">
          <mxGeometry x="570" y="520" width="30" height="40" as="geometry" />
        </mxCell>
        <mxCell id="IQexzXvic-DB4qzPmASj-77" value="nama" style="rounded=0;whiteSpace=wrap;html=1;" vertex="1" parent="1">
          <mxGeometry x="600" y="520" width="220" height="40" as="geometry" />
        </mxCell>
        <mxCell id="IQexzXvic-DB4qzPmASj-78" value="" style="rounded=0;whiteSpace=wrap;html=1;" vertex="1" parent="1">
          <mxGeometry x="570" y="560" width="30" height="40" as="geometry" />
        </mxCell>
        <mxCell id="IQexzXvic-DB4qzPmASj-79" value="idnum" style="rounded=0;whiteSpace=wrap;html=1;" vertex="1" parent="1">
          <mxGeometry x="600" y="560" width="220" height="40" as="geometry" />
        </mxCell>
        <mxCell id="IQexzXvic-DB4qzPmASj-80" value="" style="rounded=0;whiteSpace=wrap;html=1;" vertex="1" parent="1">
          <mxGeometry x="570" y="600" width="30" height="40" as="geometry" />
        </mxCell>
        <mxCell id="IQexzXvic-DB4qzPmASj-81" value="assoc" style="rounded=0;whiteSpace=wrap;html=1;" vertex="1" parent="1">
          <mxGeometry x="600" y="600" width="220" height="40" as="geometry" />
        </mxCell>
        <mxCell id="IQexzXvic-DB4qzPmASj-82" value="&lt;b&gt;FK&lt;/b&gt;" style="rounded=0;whiteSpace=wrap;html=1;" vertex="1" parent="1">
          <mxGeometry x="570" y="640" width="30" height="40" as="geometry" />
        </mxCell>
        <mxCell id="IQexzXvic-DB4qzPmASj-83" value="partai" style="rounded=0;whiteSpace=wrap;html=1;" vertex="1" parent="1">
          <mxGeometry x="600" y="640" width="220" height="40" as="geometry" />
        </mxCell>
        <mxCell id="IQexzXvic-DB4qzPmASj-84" value="" style="edgeStyle=entityRelationEdgeStyle;endArrow=ERzeroToMany;startArrow=ERone;endFill=1;startFill=0;exitX=1;exitY=0.5;exitDx=0;exitDy=0;" edge="1" parent="1" source="IQexzXvic-DB4qzPmASj-14">
          <mxGeometry width="100" height="100" relative="1" as="geometry">
            <mxPoint x="380" y="175" as="sourcePoint" />
            <mxPoint x="570" y="650" as="targetPoint" />
          </mxGeometry>
        </mxCell>
        <mxCell id="IQexzXvic-DB4qzPmASj-86" value="" style="edgeStyle=entityRelationEdgeStyle;endArrow=ERzeroToMany;startArrow=ERone;endFill=1;startFill=0;exitX=1;exitY=0.5;exitDx=0;exitDy=0;entryX=0;entryY=0.5;entryDx=0;entryDy=0;" edge="1" parent="1" source="IQexzXvic-DB4qzPmASj-41" target="IQexzXvic-DB4qzPmASj-126">
          <mxGeometry width="100" height="100" relative="1" as="geometry">
            <mxPoint x="380" y="524.9999999999998" as="sourcePoint" />
            <mxPoint x="610" y="1580" as="targetPoint" />
          </mxGeometry>
        </mxCell>
        <mxCell id="IQexzXvic-DB4qzPmASj-87" value="user" style="shape=table;startSize=30;container=1;collapsible=1;childLayout=tableLayout;fixedRows=1;rowLines=0;fontStyle=1;align=center;resizeLast=1;" vertex="1" parent="1">
          <mxGeometry x="190" y="1060" width="250" height="100" as="geometry" />
        </mxCell>
        <mxCell id="IQexzXvic-DB4qzPmASj-88" value="" style="shape=partialRectangle;collapsible=0;dropTarget=0;pointerEvents=0;fillColor=none;points=[[0,0.5],[1,0.5]];portConstraint=eastwest;top=0;left=0;right=0;bottom=1;" vertex="1" parent="IQexzXvic-DB4qzPmASj-87">
          <mxGeometry y="30" width="250" height="30" as="geometry" />
        </mxCell>
        <mxCell id="IQexzXvic-DB4qzPmASj-89" value="PK" style="shape=partialRectangle;overflow=hidden;connectable=0;fillColor=none;top=0;left=0;bottom=0;right=0;fontStyle=1;" vertex="1" parent="IQexzXvic-DB4qzPmASj-88">
          <mxGeometry width="30" height="30" as="geometry" />
        </mxCell>
        <mxCell id="IQexzXvic-DB4qzPmASj-90" value="id" style="shape=partialRectangle;overflow=hidden;connectable=0;fillColor=none;top=0;left=0;bottom=0;right=0;align=center;spacingLeft=6;fontStyle=5;" vertex="1" parent="IQexzXvic-DB4qzPmASj-88">
          <mxGeometry x="30" width="220" height="30" as="geometry" />
        </mxCell>
        <mxCell id="IQexzXvic-DB4qzPmASj-91" value="" style="shape=partialRectangle;collapsible=0;dropTarget=0;pointerEvents=0;fillColor=none;points=[[0,0.5],[1,0.5]];portConstraint=eastwest;top=0;left=0;right=0;bottom=0;" vertex="1" parent="IQexzXvic-DB4qzPmASj-87">
          <mxGeometry y="60" width="250" height="30" as="geometry" />
        </mxCell>
        <mxCell id="IQexzXvic-DB4qzPmASj-92" value="" style="shape=partialRectangle;overflow=hidden;connectable=0;fillColor=none;top=0;left=0;bottom=0;right=0;" vertex="1" parent="IQexzXvic-DB4qzPmASj-91">
          <mxGeometry width="30" height="30" as="geometry" />
        </mxCell>
        <mxCell id="IQexzXvic-DB4qzPmASj-93" value="nmr_induk" style="shape=partialRectangle;overflow=hidden;connectable=0;fillColor=none;top=0;left=0;bottom=0;right=0;align=center;spacingLeft=6;" vertex="1" parent="IQexzXvic-DB4qzPmASj-91">
          <mxGeometry x="30" width="220" height="30" as="geometry" />
        </mxCell>
        <mxCell id="IQexzXvic-DB4qzPmASj-94" value="" style="rounded=0;whiteSpace=wrap;html=1;" vertex="1" parent="1">
          <mxGeometry x="190" y="1160" width="30" height="40" as="geometry" />
        </mxCell>
        <mxCell id="IQexzXvic-DB4qzPmASj-95" value="nama" style="rounded=0;whiteSpace=wrap;html=1;" vertex="1" parent="1">
          <mxGeometry x="220" y="1160" width="220" height="40" as="geometry" />
        </mxCell>
        <mxCell id="IQexzXvic-DB4qzPmASj-96" value="" style="rounded=0;whiteSpace=wrap;html=1;" vertex="1" parent="1">
          <mxGeometry x="190" y="1200" width="30" height="40" as="geometry" />
        </mxCell>
        <mxCell id="IQexzXvic-DB4qzPmASj-97" value="kategori" style="rounded=0;whiteSpace=wrap;html=1;" vertex="1" parent="1">
          <mxGeometry x="220" y="1200" width="220" height="40" as="geometry" />
        </mxCell>
        <mxCell id="IQexzXvic-DB4qzPmASj-98" value="" style="rounded=0;whiteSpace=wrap;html=1;" vertex="1" parent="1">
          <mxGeometry x="190" y="1240" width="30" height="40" as="geometry" />
        </mxCell>
        <mxCell id="IQexzXvic-DB4qzPmASj-99" value="email" style="rounded=0;whiteSpace=wrap;html=1;" vertex="1" parent="1">
          <mxGeometry x="220" y="1240" width="220" height="40" as="geometry" />
        </mxCell>
        <mxCell id="IQexzXvic-DB4qzPmASj-100" value="" style="rounded=0;whiteSpace=wrap;html=1;" vertex="1" parent="1">
          <mxGeometry x="190" y="1280" width="30" height="40" as="geometry" />
        </mxCell>
        <mxCell id="IQexzXvic-DB4qzPmASj-101" value="password" style="rounded=0;whiteSpace=wrap;html=1;" vertex="1" parent="1">
          <mxGeometry x="220" y="1280" width="220" height="40" as="geometry" />
        </mxCell>
        <mxCell id="IQexzXvic-DB4qzPmASj-102" value="" style="rounded=0;whiteSpace=wrap;html=1;" vertex="1" parent="1">
          <mxGeometry x="190" y="1320" width="30" height="40" as="geometry" />
        </mxCell>
        <mxCell id="IQexzXvic-DB4qzPmASj-103" value="status" style="rounded=0;whiteSpace=wrap;html=1;" vertex="1" parent="1">
          <mxGeometry x="220" y="1320" width="220" height="40" as="geometry" />
        </mxCell>
        <mxCell id="IQexzXvic-DB4qzPmASj-111" value="voting2" style="shape=table;startSize=30;container=1;collapsible=1;childLayout=tableLayout;fixedRows=1;rowLines=0;fontStyle=1;align=center;resizeLast=1;" vertex="1" parent="1">
          <mxGeometry x="620" y="1380" width="250" height="100" as="geometry" />
        </mxCell>
        <mxCell id="IQexzXvic-DB4qzPmASj-112" value="" style="shape=partialRectangle;collapsible=0;dropTarget=0;pointerEvents=0;fillColor=none;points=[[0,0.5],[1,0.5]];portConstraint=eastwest;top=0;left=0;right=0;bottom=1;" vertex="1" parent="IQexzXvic-DB4qzPmASj-111">
          <mxGeometry y="30" width="250" height="30" as="geometry" />
        </mxCell>
        <mxCell id="IQexzXvic-DB4qzPmASj-113" value="PK" style="shape=partialRectangle;overflow=hidden;connectable=0;fillColor=none;top=0;left=0;bottom=0;right=0;fontStyle=1;" vertex="1" parent="IQexzXvic-DB4qzPmASj-112">
          <mxGeometry width="30" height="30" as="geometry" />
        </mxCell>
        <mxCell id="IQexzXvic-DB4qzPmASj-114" value="id" style="shape=partialRectangle;overflow=hidden;connectable=0;fillColor=none;top=0;left=0;bottom=0;right=0;align=center;spacingLeft=6;fontStyle=5;" vertex="1" parent="IQexzXvic-DB4qzPmASj-112">
          <mxGeometry x="30" width="220" height="30" as="geometry" />
        </mxCell>
        <mxCell id="IQexzXvic-DB4qzPmASj-115" value="" style="shape=partialRectangle;collapsible=0;dropTarget=0;pointerEvents=0;fillColor=none;points=[[0,0.5],[1,0.5]];portConstraint=eastwest;top=0;left=0;right=0;bottom=0;" vertex="1" parent="IQexzXvic-DB4qzPmASj-111">
          <mxGeometry y="60" width="250" height="30" as="geometry" />
        </mxCell>
        <mxCell id="IQexzXvic-DB4qzPmASj-116" value="FK" style="shape=partialRectangle;overflow=hidden;connectable=0;fillColor=none;top=0;left=0;bottom=0;right=0;fontStyle=1" vertex="1" parent="IQexzXvic-DB4qzPmASj-115">
          <mxGeometry width="30" height="30" as="geometry" />
        </mxCell>
        <mxCell id="IQexzXvic-DB4qzPmASj-117" value="id_opsi" style="shape=partialRectangle;overflow=hidden;connectable=0;fillColor=none;top=0;left=0;bottom=0;right=0;align=center;spacingLeft=6;" vertex="1" parent="IQexzXvic-DB4qzPmASj-115">
          <mxGeometry x="30" width="220" height="30" as="geometry" />
        </mxCell>
        <mxCell id="IQexzXvic-DB4qzPmASj-118" value="" style="rounded=0;whiteSpace=wrap;html=1;" vertex="1" parent="1">
          <mxGeometry x="620" y="1480" width="30" height="40" as="geometry" />
        </mxCell>
        <mxCell id="IQexzXvic-DB4qzPmASj-119" value="email" style="rounded=0;whiteSpace=wrap;html=1;" vertex="1" parent="1">
          <mxGeometry x="650" y="1480" width="220" height="40" as="geometry" />
        </mxCell>
        <mxCell id="IQexzXvic-DB4qzPmASj-120" value="" style="rounded=0;whiteSpace=wrap;html=1;" vertex="1" parent="1">
          <mxGeometry x="620" y="1520" width="30" height="40" as="geometry" />
        </mxCell>
        <mxCell id="IQexzXvic-DB4qzPmASj-121" value="nama" style="rounded=0;whiteSpace=wrap;html=1;" vertex="1" parent="1">
          <mxGeometry x="650" y="1520" width="220" height="40" as="geometry" />
        </mxCell>
        <mxCell id="IQexzXvic-DB4qzPmASj-122" value="" style="rounded=0;whiteSpace=wrap;html=1;" vertex="1" parent="1">
          <mxGeometry x="620" y="1560" width="30" height="40" as="geometry" />
        </mxCell>
        <mxCell id="IQexzXvic-DB4qzPmASj-123" value="idnum" style="rounded=0;whiteSpace=wrap;html=1;" vertex="1" parent="1">
          <mxGeometry x="650" y="1560" width="220" height="40" as="geometry" />
        </mxCell>
        <mxCell id="IQexzXvic-DB4qzPmASj-124" value="" style="rounded=0;whiteSpace=wrap;html=1;" vertex="1" parent="1">
          <mxGeometry x="620" y="1600" width="30" height="40" as="geometry" />
        </mxCell>
        <mxCell id="IQexzXvic-DB4qzPmASj-125" value="assoc" style="rounded=0;whiteSpace=wrap;html=1;" vertex="1" parent="1">
          <mxGeometry x="650" y="1600" width="220" height="40" as="geometry" />
        </mxCell>
        <mxCell id="IQexzXvic-DB4qzPmASj-126" value="&lt;b&gt;FK&lt;/b&gt;" style="rounded=0;whiteSpace=wrap;html=1;" vertex="1" parent="1">
          <mxGeometry x="620" y="1640" width="30" height="40" as="geometry" />
        </mxCell>
        <mxCell id="IQexzXvic-DB4qzPmASj-127" value="partai" style="rounded=0;whiteSpace=wrap;html=1;" vertex="1" parent="1">
          <mxGeometry x="650" y="1640" width="220" height="40" as="geometry" />
        </mxCell>
        <mxCell id="IQexzXvic-DB4qzPmASj-128" value="" style="edgeStyle=entityRelationEdgeStyle;endArrow=ERzeroToMany;startArrow=ERone;endFill=1;startFill=0;entryX=0;entryY=0.5;entryDx=0;entryDy=0;exitX=1;exitY=0.5;exitDx=0;exitDy=0;" edge="1" parent="1" target="IQexzXvic-DB4qzPmASj-115">
          <mxGeometry width="100" height="100" relative="1" as="geometry">
            <mxPoint x="440" y="1110" as="sourcePoint" />
            <mxPoint x="640" y="1400" as="targetPoint" />
          </mxGeometry>
        </mxCell>
      </root>
    </mxGraphModel>
  </diagram>
</mxfile>
